HIERARCHY
ROOT cube_med
{
	OFFSET 0.000000 0.000000 0.000000
	CHANNELS 6 Xposition Yposition Zposition Yrotation Xrotation Zrotation
	End Site
	{
		OFFSET 0.000000 0.000000 0.000000
	}
}
MOTION
Frames: 84
Frame Time: 0.008333334
-2.070248 2.990754 2.000349 61.918630 -9.343811 45.914030 
-2.063618 2.991187 2.008544 62.083750 -9.033081 45.827790 
-2.056780 2.990812 2.015525 62.213490 -8.926636 45.861530 
-2.050550 2.990169 2.023660 62.567870 -8.916138 45.934000 
-2.042611 2.990279 2.031214 62.889670 -8.804260 45.868500 
-2.036065 2.989693 2.039172 63.378480 -8.838409 45.960430 
-2.027800 2.988282 2.047287 63.826230 -8.733978 46.130870 
-2.017567 2.987630 2.055622 64.376900 -8.707886 46.243310 
-2.004789 2.986313 2.064560 64.960910 -8.238861 46.258690 
-1.993548 2.984308 2.074485 65.351330 -7.867004 46.235650 
-1.985287 2.982123 2.082040 65.839200 -7.671814 46.483250 
-1.979395 2.980883 2.089401 65.992890 -7.464630 46.592580 
-1.974991 2.980578 2.094975 66.147960 -7.414337 46.471610 
-1.969882 2.981545 2.098633 66.576240 -7.404724 46.187260 
-1.963722 2.982880 2.102033 66.924830 -7.432190 45.908180 
-1.956509 2.986581 2.103994 67.456660 -7.563965 45.469840 
-1.948832 2.989201 2.106427 67.914610 -7.460388 45.058980 
-1.938035 2.991102 2.109097 68.354080 -7.165497 44.579600 
-1.926636 2.994006 2.112282 68.934330 -6.694550 44.114740 
-1.913458 2.996480 2.115534 69.326170 -6.090027 43.483850 
-1.900549 3.000893 2.118606 69.685040 -5.557922 42.911060 
-1.887908 3.005739 2.120862 69.730220 -4.919647 42.441970 
-1.877988 3.009592 2.124374 69.800320 -4.465149 41.732050 
-1.867716 3.014723 2.127284 69.456570 -3.866211 41.104070 
-1.859541 3.019548 2.129514 69.278050 -3.400696 40.406140 
-1.852626 3.025650 2.130320 68.899830 -3.054260 39.721450 
-1.846051 3.031745 2.130378 68.469470 -2.649048 38.852980 
-1.839894 3.036530 2.131006 68.012690 -2.550507 38.163950 
-1.834214 3.040477 2.132453 67.525670 -2.319946 37.545870 
-1.827993 3.043711 2.134949 67.162220 -2.166473 37.251040 
-1.823090 3.045908 2.139592 66.973950 -2.084503 37.116210 
-1.817756 3.046387 2.146208 66.756230 -1.939941 37.220030 
-1.813822 3.046027 2.153454 66.587210 -1.936707 37.309570 
-1.809458 3.047338 2.160637 66.572880 -1.990509 37.352770 
-1.806155 3.049556 2.167743 66.514530 -2.085602 37.443310 
-1.803376 3.053257 2.172574 66.282240 -2.308380 37.322400 
-1.801628 3.057544 2.176344 66.142120 -2.424561 37.071310 
-1.798765 3.063878 2.179427 65.927120 -2.734192 36.656460 
-1.795694 3.070258 2.182430 65.502830 -2.861908 36.212520 
-1.794223 3.078084 2.183971 65.090760 -3.161987 35.480390 
-1.793306 3.086482 2.185327 64.594980 -3.555969 34.874610 
-1.795408 3.095415 2.186654 63.985570 -4.062531 34.080230 
-1.799855 3.104130 2.187229 63.248840 -4.728180 33.386860 
-1.805224 3.112633 2.185722 62.634980 -5.374176 32.656940 
-1.812869 3.121697 2.183877 61.961740 -6.244598 31.716630 
-1.819231 3.131292 2.178777 61.466290 -6.984558 30.585430 
-1.824929 3.140879 2.172542 60.972930 -7.635681 29.442040 
-1.831035 3.149586 2.166076 60.489230 -8.265747 28.423710 
-1.837248 3.157351 2.160012 59.704020 -9.004272 27.485030 
-1.846496 3.163517 2.154286 58.902070 -9.771149 26.530720 
-1.857207 3.169544 2.148322 58.050090 -10.636810 25.689380 
-1.867522 3.173173 2.141905 57.226340 -11.596100 24.834890 
-1.877307 3.176615 2.135767 56.492020 -12.579070 24.163770 
-1.886738 3.178837 2.130247 55.533700 -13.669190 23.783200 
-1.896197 3.179609 2.127981 54.829280 -14.410190 23.444490 
-1.902755 3.179471 2.127427 53.928180 -14.901030 23.263850 
-1.912359 3.179969 2.129964 52.603220 -15.258270 23.503840 
-1.919589 3.179404 2.133366 51.459440 -15.460600 23.795280 
-1.928993 3.179554 2.138306 49.983790 -15.591030 24.238250 
-1.939172 3.178795 2.144872 48.256300 -15.526820 24.880600 
-1.949425 3.176926 2.152443 46.586410 -15.379670 25.559520 
-1.961314 3.173754 2.159967 44.747280 -15.088200 26.377880 
-1.972065 3.171461 2.167443 43.046250 -14.900820 27.047090 
-1.981291 3.168591 2.173681 41.274880 -14.703700 27.782270 
-1.991814 3.165667 2.180671 39.397620 -14.465330 28.384150 
-2.002301 3.161288 2.188360 37.601850 -14.105680 29.283900 
-2.014197 3.156788 2.195966 35.813490 -13.711520 30.001460 
-2.024077 3.151993 2.204488 34.090480 -13.250850 30.893150 
-2.035716 3.147444 2.215640 32.346810 -12.635770 31.753520 
-2.046493 3.142532 2.226392 30.751200 -11.890960 32.610210 
-2.058119 3.138101 2.238431 29.192410 -11.168640 33.491090 
-2.069270 3.132946 2.251411 27.800580 -10.427830 34.272420 
-2.079947 3.127542 2.265725 26.409220 -9.558533 35.043230 
-2.091358 3.121869 2.279816 25.005130 -8.700867 35.821380 
-2.105067 3.115560 2.295537 23.682660 -7.744141 36.612300 
-2.117499 3.108952 2.311280 22.625360 -6.809692 37.452580 
-2.131223 3.100294 2.329117 21.476250 -5.667053 38.253200 
-2.145688 3.091769 2.348258 20.114240 -4.595673 39.260290 
-2.161555 3.082711 2.367668 18.884380 -3.464722 40.199960 
-2.175799 3.073151 2.387617 17.868830 -2.326385 41.013110 
-2.189902 3.064404 2.405876 16.913200 -1.289032 41.732960 
-2.202098 3.055900 2.422483 15.826040 -0.330689 42.347370 
-2.214019 3.047838 2.437751 14.940100 0.749363 42.696870 
-2.223401 3.041623 2.451776 14.027860 1.454826 42.839000 
